<svg xmlns="http://www.w3.org/2000/svg" version="1.1" xmlns:xlink="http://www.w3.org/1999/xlink" xmlns:svgjs="http://svgjs.com/svgjs" width="1440" height="560" preserveAspectRatio="none" viewBox="0 0 1440 560"><g mask="url(&quot;#SvgjsMask1174&quot;)" fill="none"><g mask="url(&quot;#SvgjsMask1175&quot;)"><path d="M450 270L486 270M270 270L306 306M162 270L198 306L234 306L270 306L306 342L342 342L378 342L414 342L450 342L486 342M522 306L558 270L594 270L630 270L666 270L702 270M378 270L414 306L450 306M594 306L630 342M-18 270L18 270L54 270L90 270L126 270L162 270L198 270L234 270L270 270L306 270L342 270L378 270L414 270L450 270L486 306L522 306L558 306L594 306L630 306L666 306L702 306L738 306L774 306L810 306L846 306L882 306" stroke="rgba(26, 28, 32, 1)" stroke-width="6"></path><path d="M873 306 a9 9 0 1 0 18 0 a9 9 0 1 0 -18 0zM477 270 a9 9 0 1 0 18 0 a9 9 0 1 0 -18 0zM297 306 a9 9 0 1 0 18 0 a9 9 0 1 0 -18 0zM477 342 a9 9 0 1 0 18 0 a9 9 0 1 0 -18 0zM693 270 a9 9 0 1 0 18 0 a9 9 0 1 0 -18 0zM441 306 a9 9 0 1 0 18 0 a9 9 0 1 0 -18 0zM621 342 a9 9 0 1 0 18 0 a9 9 0 1 0 -18 0z" fill="rgba(26, 28, 32, 1)"></path><path d="M810 414L846 450L882 486L918 486L954 486L990 486M1170 450L1206 486M882 450L918 414L954 414L990 414L1026 414M450 414L486 378L522 378L558 378M630 414L666 414L702 414L738 378M1098 450L1134 486L1170 486M846 414L882 414L918 378L954 378L990 378L1026 378L1062 378L1098 378L1134 378L1170 378L1206 378L1242 378M594 414L630 378M306 378L342 414M-18 306L18 306L54 306L90 306L126 342L162 342L198 342L234 342L270 378L306 378L342 378L378 414L414 414L450 414L486 414L522 414L558 414L594 414L630 414L666 450L702 450L738 414L774 414L810 414L846 414L882 450L918 450L954 450L990 450L1026 450L1062 450L1098 450L1134 450L1170 450L1206 450L1242 414L1278 414" stroke="rgba(220, 20, 60, 1)" stroke-width="6"></path><path d="M1269 414 a9 9 0 1 0 18 0 a9 9 0 1 0 -18 0zM981 486 a9 9 0 1 0 18 0 a9 9 0 1 0 -18 0zM1197 486 a9 9 0 1 0 18 0 a9 9 0 1 0 -18 0zM1017 414 a9 9 0 1 0 18 0 a9 9 0 1 0 -18 0zM549 378 a9 9 0 1 0 18 0 a9 9 0 1 0 -18 0zM729 378 a9 9 0 1 0 18 0 a9 9 0 1 0 -18 0zM1161 486 a9 9 0 1 0 18 0 a9 9 0 1 0 -18 0zM1233 378 a9 9 0 1 0 18 0 a9 9 0 1 0 -18 0zM621 378 a9 9 0 1 0 18 0 a9 9 0 1 0 -18 0zM333 414 a9 9 0 1 0 18 0 a9 9 0 1 0 -18 0z" fill="rgba(220, 20, 60, 1)"></path><path d="M486 234L522 198L558 198M378 234L414 198L450 198M738 198L774 234L810 234L846 234L882 234L918 234M954 198L990 234L1026 234L1062 234L1098 234L1134 234L1170 234L1206 234L1242 270L1278 270L1314 270L1350 270M1206 162L1242 126L1278 126L1314 126M342 234L378 198M1170 162L1206 198L1242 198M1134 162L1170 198M666 198L702 234L738 234L774 270L810 270L846 270M-18 234L18 234L54 234L90 234L126 234L162 234L198 234L234 234L270 234L306 234L342 234L378 234L414 234L450 234L486 234L522 234L558 234L594 234L630 198L666 198L702 198L738 198L774 198L810 198L846 198L882 198L918 198L954 198L990 198L1026 198L1062 162L1098 162L1134 162L1170 162L1206 162L1242 162L1278 162" stroke="rgba(220, 20, 60, 1)" stroke-width="6"></path><path d="M1269 162 a9 9 0 1 0 18 0 a9 9 0 1 0 -18 0zM549 198 a9 9 0 1 0 18 0 a9 9 0 1 0 -18 0zM441 198 a9 9 0 1 0 18 0 a9 9 0 1 0 -18 0zM909 234 a9 9 0 1 0 18 0 a9 9 0 1 0 -18 0zM1341 270 a9 9 0 1 0 18 0 a9 9 0 1 0 -18 0zM1305 126 a9 9 0 1 0 18 0 a9 9 0 1 0 -18 0zM369 198 a9 9 0 1 0 18 0 a9 9 0 1 0 -18 0zM1233 198 a9 9 0 1 0 18 0 a9 9 0 1 0 -18 0zM1161 198 a9 9 0 1 0 18 0 a9 9 0 1 0 -18 0zM837 270 a9 9 0 1 0 18 0 a9 9 0 1 0 -18 0z" fill="rgba(220, 20, 60, 1)"></path><path d="M54 342L90 378M270 414L306 414M594 486L630 486L666 486L702 486L738 486M522 450L558 450L594 450M-18 342L18 342L54 342L90 342L126 378L162 378L198 378L234 378L270 414L306 450L342 450L378 450L414 450L450 450L486 450L522 450L558 486L594 486L630 450" stroke="rgba(220, 20, 60, 1)" stroke-width="6"></path><path d="M621 450 a9 9 0 1 0 18 0 a9 9 0 1 0 -18 0zM81 378 a9 9 0 1 0 18 0 a9 9 0 1 0 -18 0zM297 414 a9 9 0 1 0 18 0 a9 9 0 1 0 -18 0zM729 486 a9 9 0 1 0 18 0 a9 9 0 1 0 -18 0zM585 450 a9 9 0 1 0 18 0 a9 9 0 1 0 -18 0z" fill="rgba(220, 20, 60, 1)"></path><path d="M306 198L342 198M774 162L810 126L846 126L882 126L918 126M954 162L990 126L1026 126L1062 90L1098 90L1134 90L1170 90L1206 90L1242 90L1278 90L1314 90M-18 198L18 198L54 198L90 198L126 198L162 198L198 198L234 198L270 198L306 198L342 162L378 162L414 162L450 162L486 162L522 162L558 162L594 162L630 162L666 162L702 162L738 162L774 162L810 162L846 162L882 162L918 162L954 162L990 162L1026 162L1062 126L1098 126" stroke="rgba(220, 20, 60, 1)" stroke-width="6"></path><path d="M1089 126 a9 9 0 1 0 18 0 a9 9 0 1 0 -18 0zM333 198 a9 9 0 1 0 18 0 a9 9 0 1 0 -18 0zM909 126 a9 9 0 1 0 18 0 a9 9 0 1 0 -18 0zM1305 90 a9 9 0 1 0 18 0 a9 9 0 1 0 -18 0z" fill="rgba(220, 20, 60, 1)"></path><path d="M54 414L90 450L126 450M162 414L198 450M18 414L54 378M-18 378L18 414L54 414L90 414L126 414L162 414L198 414L234 414L270 450L306 486L342 486L378 486L414 486L450 486L486 486L522 486" stroke="rgba(220, 20, 60, 1)" stroke-width="6"></path><path d="M513 486 a9 9 0 1 0 18 0 a9 9 0 1 0 -18 0zM117 450 a9 9 0 1 0 18 0 a9 9 0 1 0 -18 0zM189 450 a9 9 0 1 0 18 0 a9 9 0 1 0 -18 0zM45 378 a9 9 0 1 0 18 0 a9 9 0 1 0 -18 0z" fill="rgba(220, 20, 60, 1)"></path><path d="M378 126L414 90L450 90L486 90L522 90M198 162L234 126L270 126L306 126M162 162L198 126L234 90L270 90M702 126L738 90M594 126L630 90M126 162L162 126L198 90M-18 162L18 162L54 162L90 162L126 162L162 162L198 162L234 162L270 162L306 162L342 126L378 126L414 126L450 126L486 126L522 126L558 126L594 126L630 126L666 126L702 126L738 126L774 90L810 90L846 90" stroke="rgba(26, 28, 32, 1)" stroke-width="6"></path><path d="M837 90 a9 9 0 1 0 18 0 a9 9 0 1 0 -18 0zM513 90 a9 9 0 1 0 18 0 a9 9 0 1 0 -18 0zM297 126 a9 9 0 1 0 18 0 a9 9 0 1 0 -18 0zM261 90 a9 9 0 1 0 18 0 a9 9 0 1 0 -18 0zM729 90 a9 9 0 1 0 18 0 a9 9 0 1 0 -18 0zM621 90 a9 9 0 1 0 18 0 a9 9 0 1 0 -18 0zM189 90 a9 9 0 1 0 18 0 a9 9 0 1 0 -18 0z" fill="rgba(26, 28, 32, 1)"></path></g></g><defs><mask id="SvgjsMask1174"><rect width="1440" height="560" fill="#ffffff"></rect></mask><mask id="SvgjsMask1175"><rect width="1440" height="560" fill="white"></rect><path d="M877.5 306 a4.5 4.5 0 1 0 9 0 a4.5 4.5 0 1 0 -9 0zM481.5 270 a4.5 4.5 0 1 0 9 0 a4.5 4.5 0 1 0 -9 0zM301.5 306 a4.5 4.5 0 1 0 9 0 a4.5 4.5 0 1 0 -9 0zM481.5 342 a4.5 4.5 0 1 0 9 0 a4.5 4.5 0 1 0 -9 0zM697.5 270 a4.5 4.5 0 1 0 9 0 a4.5 4.5 0 1 0 -9 0zM445.5 306 a4.5 4.5 0 1 0 9 0 a4.5 4.5 0 1 0 -9 0zM625.5 342 a4.5 4.5 0 1 0 9 0 a4.5 4.5 0 1 0 -9 0z" fill="black"></path><path d="M1273.5 414 a4.5 4.5 0 1 0 9 0 a4.5 4.5 0 1 0 -9 0zM985.5 486 a4.5 4.5 0 1 0 9 0 a4.5 4.5 0 1 0 -9 0zM1201.5 486 a4.5 4.5 0 1 0 9 0 a4.5 4.5 0 1 0 -9 0zM1021.5 414 a4.5 4.5 0 1 0 9 0 a4.5 4.5 0 1 0 -9 0zM553.5 378 a4.5 4.5 0 1 0 9 0 a4.5 4.5 0 1 0 -9 0zM733.5 378 a4.5 4.5 0 1 0 9 0 a4.5 4.5 0 1 0 -9 0zM1165.5 486 a4.5 4.5 0 1 0 9 0 a4.5 4.5 0 1 0 -9 0zM1237.5 378 a4.5 4.5 0 1 0 9 0 a4.5 4.5 0 1 0 -9 0zM625.5 378 a4.5 4.5 0 1 0 9 0 a4.5 4.5 0 1 0 -9 0zM337.5 414 a4.5 4.5 0 1 0 9 0 a4.5 4.5 0 1 0 -9 0z" fill="black"></path><path d="M1273.5 162 a4.5 4.5 0 1 0 9 0 a4.5 4.5 0 1 0 -9 0zM553.5 198 a4.5 4.5 0 1 0 9 0 a4.5 4.5 0 1 0 -9 0zM445.5 198 a4.5 4.5 0 1 0 9 0 a4.5 4.5 0 1 0 -9 0zM913.5 234 a4.5 4.5 0 1 0 9 0 a4.5 4.5 0 1 0 -9 0zM1345.5 270 a4.5 4.5 0 1 0 9 0 a4.5 4.5 0 1 0 -9 0zM1309.5 126 a4.5 4.5 0 1 0 9 0 a4.5 4.5 0 1 0 -9 0zM373.5 198 a4.5 4.5 0 1 0 9 0 a4.5 4.5 0 1 0 -9 0zM1237.5 198 a4.5 4.5 0 1 0 9 0 a4.5 4.5 0 1 0 -9 0zM1165.5 198 a4.5 4.5 0 1 0 9 0 a4.5 4.5 0 1 0 -9 0zM841.5 270 a4.5 4.5 0 1 0 9 0 a4.5 4.5 0 1 0 -9 0z" fill="black"></path><path d="M625.5 450 a4.5 4.5 0 1 0 9 0 a4.5 4.5 0 1 0 -9 0zM85.5 378 a4.5 4.5 0 1 0 9 0 a4.5 4.5 0 1 0 -9 0zM301.5 414 a4.5 4.5 0 1 0 9 0 a4.5 4.5 0 1 0 -9 0zM733.5 486 a4.5 4.5 0 1 0 9 0 a4.5 4.5 0 1 0 -9 0zM589.5 450 a4.5 4.5 0 1 0 9 0 a4.5 4.5 0 1 0 -9 0z" fill="black"></path><path d="M1093.5 126 a4.5 4.5 0 1 0 9 0 a4.5 4.5 0 1 0 -9 0zM337.5 198 a4.5 4.5 0 1 0 9 0 a4.5 4.5 0 1 0 -9 0zM913.5 126 a4.5 4.5 0 1 0 9 0 a4.5 4.5 0 1 0 -9 0zM1309.5 90 a4.5 4.5 0 1 0 9 0 a4.5 4.5 0 1 0 -9 0z" fill="black"></path><path d="M517.5 486 a4.5 4.5 0 1 0 9 0 a4.5 4.5 0 1 0 -9 0zM121.5 450 a4.5 4.5 0 1 0 9 0 a4.5 4.5 0 1 0 -9 0zM193.5 450 a4.5 4.5 0 1 0 9 0 a4.5 4.5 0 1 0 -9 0zM49.5 378 a4.5 4.5 0 1 0 9 0 a4.5 4.5 0 1 0 -9 0z" fill="black"></path><path d="M841.5 90 a4.5 4.5 0 1 0 9 0 a4.5 4.5 0 1 0 -9 0zM517.5 90 a4.5 4.5 0 1 0 9 0 a4.5 4.5 0 1 0 -9 0zM301.5 126 a4.5 4.5 0 1 0 9 0 a4.5 4.5 0 1 0 -9 0zM265.5 90 a4.5 4.5 0 1 0 9 0 a4.5 4.5 0 1 0 -9 0zM733.5 90 a4.5 4.5 0 1 0 9 0 a4.5 4.5 0 1 0 -9 0zM625.5 90 a4.5 4.5 0 1 0 9 0 a4.5 4.5 0 1 0 -9 0zM193.5 90 a4.5 4.5 0 1 0 9 0 a4.5 4.5 0 1 0 -9 0z" fill="black"></path></mask></defs></svg>